# xmcd CD database file
#
# Track frame offsets:
#	150
#	12510
#	24535
#	38875
#	52528
#	66065
#	84405
#	114403
#	146813
#	175083
#	185475
#	196838
#	210310
#	223888
#	236210
#	251363
#	261688
#	272543
#	289400
#	301825
#	315905
#	327450
#
# Disc length: 4546 seconds
#
# Revision: 0
# Processed by: cddbd v1.5.2PL0 Copyright (c) Steve Scherf et al.
# Submitted via: CDex 1.70beta2
#
DISCID=3f11c016
DTITLE=Various Artist - Chess 50th Anniversary Collection: 60's Blues Edition
DYEAR=1900
DGENRE=Blues
TTITLE0=Otis Rush-So Close
TTITLE1=Otis Rush-You Know My Love
TTITLE2=Otis Rush-So Many Roads
TTITLE3=Albert King-Searchin' For A Woman
TTITLE4=Albert King-Bad Luck
TTITLE5=Little Milton-Feel So Bad
TTITLE6=Little Milton-I Can't Quit You Baby
TTITLE7=Buddy Guy-Stone Crazy
TTITLE8=Buddy Guy-I Found a True Love
TTITLE9=Buddy Guy-First Time I Met The Blues
TTITLE10=Buddy Guy-Keep It To Myself
TTITLE11=Earl Hooker-Tanya
TTITLE12=Buster Brown-Crowlin' Kingsnake
TTITLE13=Muddy Waters-You Shook Me
TTITLE14=Muddy Waters-Standing 'Round Crying
TTITLE15=Muddy Waters-Sugar Sweet (Alternate Take)
TTITLE16=Howlin' Wolf-Little Red Rooster
TTITLE17=Howlin' Wolf-Coan On The Moon
TTITLE18=Sonny Boy Williamson-One Way Out
TTITLE19=Sonny Boy Williamson-Help Me
TTITLE20=Sonny Boy Williamson-Bring It On Home
TTITLE21=Koko Taylor-Wang Dang Doodle
EXTD=
EXTT0=
EXTT1=
EXTT2=
EXTT3=
EXTT4=
EXTT5=
EXTT6=
EXTT7=
EXTT8=
EXTT9=
EXTT10=
EXTT11=
EXTT12=
EXTT13=
EXTT14=
EXTT15=
EXTT16=
EXTT17=
EXTT18=
EXTT19=
EXTT20=
EXTT21=
PLAYORDER=
